# xmcd
#
# Track frame offsets:
#	150
#	20375
#	38637
#	64947
#	79282
#	101245
#	118312
#	134910
#	147635
#	159997
#	172720
#	192415
#
# Disc length: 2851
#
# Revision: 2
# Processed by: cddbd v1.5.1PL0 Copyright (c) Steve Scherf et al.
# Submitted via: CDex 1.50Beta7
# Normalized: r0:TDELIM( - ),TSWAP
#
DISCID=af0b210c
DTITLE=Various Artist - Jazz Classics (vol 3)
DYEAR=1998
DGENRE=Jazz
TTITLE0=Lionel Hampton - Meet Benny Balley
TTITLE1=Sonny Rollins - 'Round Midnight
TTITLE2=Paul Desmond - All the things your are
TTITLE3=Al Cohn and Zoot Sims - Crimea River
TTITLE4=Art Blakey - They call the wind Mariah
TTITLE5=Charles Mingus - Tijuana Gift Shop
TTITLE6=Joe Williams - Every day I have the Blues
TTITLE7=Nina Simone - Since I fell for you
TTITLE8=Lambert - One O'Clock Jump
TTITLE9=Sauter-Finegan Orchestra - Swingcussion
TTITLE10=Lenny Breau - A Taste of Honey
TTITLE11=George Russel Smalltet - Concerto for Billy the Kid
EXTD=YEAR: 1998
EXTT0=
EXTT1=
EXTT2=
EXTT3=
EXTT4=
EXTT5=
EXTT6=
EXTT7=
EXTT8=
EXTT9=
EXTT10=
EXTT11=
PLAYORDER=
